<svg xmlns="http://www.w3.org/2000/svg" xmlns:xlink="http://www.w3.org/1999/xlink" viewBox="0 0 12 12" preserveAspectRatio="xMidYMid" tabindex="-1">
	<defs>
        <style type="text/css"><![CDATA[
            polyline  {
                fill: #fff;
            }
        ]]></style>
    </defs>
<polyline class="fill" points="6,6 5.9,2 4.9,3 2.9,1 1,2.9 3,4.9 2,5.9" transform="translate(6,6)">
</polyline>
<polyline class="fill" points="6,6 5.9,2 4.9,3 2.9,1 1,2.9 3,4.9 2,5.9" transform="translate(6,6) rotate(90)">
</polyline>
<polyline class="fill" points="6,6 5.9,2 4.9,3 2.9,1 1,2.9 3,4.9 2,5.9" transform="translate(6,6) rotate(180)">
</polyline>
<polyline class="fill" points="6,6 5.9,2 4.9,3 2.9,1 1,2.9 3,4.9 2,5.9" transform="translate(6,6) rotate(270)">
</polyline>
</svg>

